<svg width="12" height="12" viewBox="0 0 12 12" fill="none" xmlns="http://www.w3.org/2000/svg">
<path d="M5.67063 8.8272C5.70733 8.88049 5.75644 8.92407 5.81372 8.95417C5.871 8.98427 5.93475 9 5.99946 9C6.06417 9 6.12791 8.98427 6.1852 8.95417C6.24248 8.92407 6.29158 8.88049 6.32828 8.8272L9.92857 3.62756C9.97024 3.56758 9.99468 3.49734 9.99923 3.42445C10.0038 3.35157 9.98826 3.27883 9.95436 3.21414C9.92047 3.14946 9.86949 3.09529 9.80697 3.05754C9.74445 3.01979 9.67278 2.99989 9.59974 3H2.39918C2.32631 3.0003 2.2549 3.02046 2.19263 3.0583C2.13036 3.09615 2.07959 3.15025 2.04578 3.21478C2.01196 3.27932 1.99638 3.35185 2.00071 3.42458C2.00504 3.49731 2.02912 3.56749 2.07035 3.62756L5.67063 8.8272Z" fill="#007AFF"/>
</svg>
