<svg width="12" height="12" viewBox="0 0 12 12" fill="none" xmlns="http://www.w3.org/2000/svg">
<path d="M2.40024 9H9.60045C9.67334 8.99977 9.7448 8.97963 9.80712 8.94174C9.86944 8.90386 9.92027 8.84967 9.95413 8.785C9.988 8.72032 10.0036 8.64763 9.9993 8.57473C9.99498 8.50183 9.97091 8.43149 9.92965 8.37128L6.32955 3.16199C6.18035 2.946 5.82114 2.946 5.67153 3.16199L2.07143 8.37128C2.02976 8.43136 2.00532 8.50174 2.00078 8.57476C1.99623 8.64778 2.01174 8.72065 2.04564 8.78546C2.07953 8.85027 2.1305 8.90453 2.19302 8.94235C2.25554 8.98018 2.32721 9.00011 2.40024 9Z" fill="#FF0000"/>
</svg>
