<svg width="14" height="14" viewBox="0 0 14 14" fill="none" xmlns="http://www.w3.org/2000/svg">
<path d="M3.79167 7.875H10.2083V7.29167H3.79167V7.875ZM3.79167 6.125H10.2083V5.54167H3.79167V6.125ZM3.79167 4.375H10.2083V3.79167H3.79167V4.375ZM12.25 11.7116L10.4551 9.91667H2.69267C2.42395 9.91667 2.19956 9.82683 2.0195 9.64717C1.83945 9.4675 1.74961 9.24331 1.75 8.97458V2.69208C1.75 2.42375 1.84003 2.19956 2.02008 2.0195C2.20014 1.83945 2.42414 1.74961 2.69208 1.75H11.3079C11.5763 1.75 11.8003 1.83983 11.9799 2.0195C12.1596 2.19917 12.2496 2.42336 12.25 2.69208V11.7116ZM2.69267 9.33333H10.7042L11.6667 10.2923V2.69267C11.6667 2.60283 11.6293 2.52039 11.5547 2.44533C11.48 2.37028 11.3978 2.33295 11.3079 2.33333H2.69208C2.60264 2.33333 2.52039 2.37067 2.44533 2.44533C2.37028 2.52 2.33295 2.60225 2.33333 2.69208V8.97458C2.33333 9.06403 2.37067 9.14628 2.44533 9.22133C2.52 9.29639 2.60225 9.33372 2.69208 9.33333" fill="black"/>
</svg>
