<svg width="14" height="14" viewBox="0 0 14 14" fill="none" xmlns="http://www.w3.org/2000/svg">
<path d="M6.99995 10.0771L4.57911 11.5354C4.47217 11.6034 4.36036 11.6326 4.2437 11.6229C4.12703 11.6132 4.02495 11.5743 3.93745 11.5062C3.84995 11.4382 3.78189 11.3532 3.73328 11.2513C3.68467 11.1494 3.67495 11.0351 3.70411 10.9083L4.34578 8.15205L2.20203 6.29997C2.10481 6.21247 2.04414 6.11272 2.02003 6.00072C1.99592 5.88872 2.00311 5.77944 2.04161 5.67289C2.08011 5.56633 2.13845 5.47883 2.21661 5.41039C2.29478 5.34194 2.40173 5.29819 2.53745 5.27914L5.36661 5.03122L6.46036 2.43539C6.50898 2.31872 6.58442 2.23122 6.6867 2.17289C6.78898 2.11455 6.89339 2.08539 6.99995 2.08539C7.1065 2.08539 7.21092 2.11455 7.3132 2.17289C7.41548 2.23122 7.49092 2.31872 7.53953 2.43539L8.63328 5.03122L11.4624 5.27914C11.5986 5.29858 11.7055 5.34233 11.7833 5.41039C11.8611 5.47844 11.9194 5.56594 11.9583 5.67289C11.9972 5.77983 12.0046 5.8893 11.9804 6.0013C11.9563 6.11331 11.8955 6.21286 11.7979 6.29997L9.65411 8.15205L10.2958 10.9083C10.3249 11.0347 10.3152 11.149 10.2666 11.2513C10.218 11.3536 10.1499 11.4386 10.0624 11.5062C9.97495 11.5739 9.87286 11.6128 9.7562 11.6229C9.63953 11.633 9.52773 11.6038 9.42078 11.5354L6.99995 10.0771Z" fill="#8B8B8B"/>
</svg>
