<svg width="17" height="16" viewBox="0 0 17 16" fill="none" xmlns="http://www.w3.org/2000/svg">
<path fill-rule="evenodd" clip-rule="evenodd" d="M15.1624 8.28969C15.1631 7.82327 15.1221 7.3577 15.0398 6.89859H8.63387V9.52961H12.2944C12.2187 9.94576 12.0594 10.3423 11.8261 10.6951C11.5929 11.048 11.2905 11.3498 10.9372 11.5825V13.289H13.1356C13.805 12.6443 14.3314 11.8661 14.6808 11.0048C15.0302 10.1436 15.1947 9.21857 15.1636 8.28969H15.1624Z" fill="#3E82F1"/>
<path fill-rule="evenodd" clip-rule="evenodd" d="M8.63265 14.9359C10.2883 14.9806 11.8984 14.3912 13.134 13.2882L10.9356 11.5817C10.4097 11.9192 9.81373 12.1322 9.19305 12.2043C8.57237 12.2765 7.9434 12.2059 7.35414 11.998C6.76487 11.7902 6.23088 11.4504 5.79286 11.0048C5.35484 10.5592 5.02436 10.0194 4.82666 9.42667H2.55437V11.1891C3.12038 12.3159 3.9886 13.2631 5.062 13.9248C6.1354 14.5866 7.37167 14.9364 8.63265 14.9359Z" fill="#32A753"/>
<path fill-rule="evenodd" clip-rule="evenodd" d="M4.82973 9.4273C4.54532 8.58929 4.54532 7.68084 4.82973 6.84284V5.0808H2.55741C2.0817 6.02873 1.83398 7.07467 1.83398 8.13527C1.83398 9.19586 2.0817 10.2418 2.55741 11.1897L4.82973 9.4273Z" fill="#F9BB00"/>
<path fill-rule="evenodd" clip-rule="evenodd" d="M8.63265 4.03842C9.59939 4.02223 10.5335 4.38773 11.2326 5.05568L13.1834 3.10489C11.9523 1.94868 10.3215 1.31385 8.63265 1.33345C7.37167 1.33294 6.1354 1.68312 5.062 2.34485C3.9886 3.00658 3.12038 3.95378 2.55437 5.08059L4.82666 6.84266C5.08797 6.03585 5.59576 5.3313 6.27852 4.82825C6.96129 4.32519 7.78465 4.04895 8.63265 4.03842Z" fill="#E74133"/>
</svg>
