<svg width="14" height="13" viewBox="0 0 14 13" fill="none" xmlns="http://www.w3.org/2000/svg">
<path d="M3.6001 8.60001H10.4001C10.5701 8.60001 10.7126 8.54284 10.8276 8.42851C10.9426 8.31417 11.0001 8.17251 11.0001 8.00351C11.0001 7.83451 10.9426 7.69167 10.8276 7.57501C10.7126 7.45834 10.5701 7.40001 10.4001 7.40001H3.6001C3.4301 7.40001 3.2876 7.45717 3.1726 7.57151C3.0576 7.68584 3.0001 7.82751 3.0001 7.99651C3.0001 8.16551 3.0576 8.30834 3.1726 8.42501C3.2876 8.54167 3.4301 8.60001 3.6001 8.60001ZM3.6001 6.40001H10.4001C10.5701 6.40001 10.7126 6.34284 10.8276 6.22851C10.9426 6.11417 11.0001 5.97251 11.0001 5.80351C11.0001 5.63451 10.9426 5.49167 10.8276 5.37501C10.7126 5.25834 10.5701 5.20001 10.4001 5.20001H3.6001C3.4301 5.20001 3.2876 5.25717 3.1726 5.37151C3.0576 5.48584 3.0001 5.62751 3.0001 5.79651C3.0001 5.96551 3.0576 6.10834 3.1726 6.22501C3.2876 6.34167 3.4301 6.40001 3.6001 6.40001ZM3.6001 4.20001H10.4001C10.5701 4.20001 10.7126 4.14284 10.8276 4.02851C10.9426 3.91417 11.0001 3.77251 11.0001 3.60351C11.0001 3.43451 10.9426 3.29167 10.8276 3.17501C10.7126 3.05834 10.5701 3.00001 10.4001 3.00001H3.6001C3.4301 3.00001 3.2876 3.05717 3.1726 3.17151C3.0576 3.28584 3.0001 3.42751 3.0001 3.59651C3.0001 3.76551 3.0576 3.90834 3.1726 4.02501C3.2876 4.14167 3.4301 4.20001 3.6001 4.20001ZM1.8001 11C1.4701 11 1.1876 10.8825 0.952598 10.6475C0.717598 10.4125 0.600098 10.13 0.600098 9.80001V1.80001C0.600098 1.47001 0.717598 1.18751 0.952598 0.952507C1.1876 0.717507 1.4701 0.600006 1.8001 0.600006H12.2001C12.5301 0.600006 12.8126 0.717507 13.0476 0.952507C13.2826 1.18751 13.4001 1.47001 13.4001 1.80001V11.95C13.4001 12.2188 13.2779 12.4054 13.0334 12.5098C12.789 12.6144 12.5717 12.5716 12.3814 12.3813L11.0001 11H1.8001ZM11.5001 9.80001L12.2001 10.5V1.80001H1.8001V9.80001H11.5001Z" fill="#898989"/>
</svg>
