<svg width="6" height="10" viewBox="0 0 6 10" fill="none" xmlns="http://www.w3.org/2000/svg">
<path d="M3.87484 5.00001L0.458171 1.58334C0.305393 1.43056 0.229004 1.25348 0.229004 1.05209C0.229004 0.8507 0.305393 0.673616 0.458171 0.520838C0.610948 0.368061 0.788032 0.291672 0.989421 0.291672C1.19081 0.291672 1.37025 0.370422 1.52775 0.527922L5.479 4.47917C5.54845 4.55417 5.60053 4.63542 5.63525 4.72292C5.66998 4.81042 5.68734 4.90417 5.68734 5.00417C5.68734 5.10417 5.66998 5.19792 5.63525 5.28542C5.60053 5.37292 5.54845 5.45139 5.479 5.52084L1.52775 9.47209C1.37025 9.62959 1.19428 9.70487 0.999837 9.69792C0.805393 9.69098 0.631782 9.61112 0.479004 9.45834C0.326226 9.30556 0.249837 9.12848 0.249837 8.92709C0.249837 8.7257 0.326226 8.54862 0.479004 8.39584L3.87484 5.00001Z" fill="#898989"/>
</svg>
