<svg width="16" height="16" viewBox="0 0 16 16" fill="none" xmlns="http://www.w3.org/2000/svg">
<g clip-path="url(#clip0_2252_2095)">
<path d="M11.9999 8.66665H8.66658V12C8.66658 12.3666 8.36658 12.6666 7.99992 12.6666C7.63325 12.6666 7.33325 12.3666 7.33325 12V8.66665H3.99992C3.63325 8.66665 3.33325 8.36665 3.33325 7.99998C3.33325 7.63331 3.63325 7.33331 3.99992 7.33331H7.33325V3.99998C7.33325 3.63331 7.63325 3.33331 7.99992 3.33331C8.36658 3.33331 8.66658 3.63331 8.66658 3.99998V7.33331H11.9999C12.3666 7.33331 12.6666 7.63331 12.6666 7.99998C12.6666 8.36665 12.3666 8.66665 11.9999 8.66665Z" fill="black"/>
</g>
<defs>
<clipPath id="clip0_2252_2095">
<rect width="16" height="16" fill="white"/>
</clipPath>
</defs>
</svg>
