<svg width="20" height="20" viewBox="0 0 20 20" fill="none" xmlns="http://www.w3.org/2000/svg">
<g clip-path="url(#clip0_2252_5501)">
<path d="M4 0.5H16C17.933 0.5 19.5 2.067 19.5 4V16C19.5 17.933 17.933 19.5 16 19.5H4C2.067 19.5 0.5 17.933 0.5 16V4C0.5 2.067 2.067 0.5 4 0.5Z" stroke="#DCDCE3"/>
</g>
<defs>
<clipPath id="clip0_2252_5501">
<path d="M0 4C0 1.79086 1.79086 0 4 0H16C18.2091 0 20 1.79086 20 4V16C20 18.2091 18.2091 20 16 20H4C1.79086 20 0 18.2091 0 16V4Z" fill="white"/>
</clipPath>
</defs>
</svg>
