<svg width="45" height="20" viewBox="0 0 45 20" fill="none" xmlns="http://www.w3.org/2000/svg">
<path d="M10.5 0.5H34.5C39.7467 0.5 44 4.7533 44 10C44 15.2467 39.7467 19.5 34.5 19.5H10.5C5.2533 19.5 1 15.2467 1 10C1 4.7533 5.2533 0.5 10.5 0.5Z" stroke="#C9C9C9"/>
<path d="M7.02051 14L9.6084 6.92969H10.5361L13.124 14H12.1963L11.4883 12.0078H8.64648L7.93848 14H7.02051ZM11.2197 11.2363L10.0967 8.07227H10.0381L8.91504 11.2363H11.2197ZM14.0811 14V6.92969H16.3662C17.0465 6.92969 17.6325 7.07129 18.124 7.35449C18.6188 7.63444 18.9964 8.03971 19.2568 8.57031C19.5173 9.09766 19.6475 9.72591 19.6475 10.4551C19.6475 11.1908 19.5156 11.8239 19.252 12.3545C18.9883 12.8851 18.6042 13.292 18.0996 13.5752C17.5951 13.8584 16.988 14 16.2783 14H14.0811ZM16.2197 13.2188C17.0726 13.2188 17.7139 12.9779 18.1436 12.4961C18.5732 12.0143 18.7881 11.334 18.7881 10.4551C18.7881 9.58594 18.5781 8.91211 18.1582 8.43359C17.7383 7.95182 17.1214 7.71094 16.3076 7.71094H14.96V13.2188H16.2197Z" fill="#777777"/>
<path d="M30.5 13C30.5951 13 30.6744 12.968 30.738 12.904C30.8016 12.84 30.8333 12.7609 30.8333 12.6667V9.66667C30.8333 9.572 30.8013 9.49289 30.7373 9.42933C30.6733 9.36578 30.594 9.33378 30.4993 9.33333C30.4047 9.33289 30.3256 9.36489 30.262 9.42933C30.1984 9.49378 30.1667 9.57289 30.1667 9.66667V12.6667C30.1667 12.7613 30.1987 12.8404 30.2627 12.904C30.3267 12.9676 30.406 12.9996 30.5007 13M30.5 8.38467C30.6164 8.38467 30.714 8.34533 30.7927 8.26667C30.8713 8.188 30.9104 8.09067 30.91 7.97467C30.9096 7.85867 30.8702 7.76111 30.792 7.682C30.7138 7.60289 30.6164 7.56356 30.5 7.564C30.3836 7.56444 30.2862 7.60378 30.208 7.682C30.1298 7.76022 30.0904 7.85778 30.09 7.97467C30.0896 8.09156 30.1289 8.18889 30.208 8.26667C30.2871 8.34444 30.3844 8.38378 30.5 8.38467ZM30.502 16C29.6722 16 28.8922 15.8427 28.162 15.528C27.4318 15.2129 26.7964 14.7853 26.256 14.2453C25.7156 13.7053 25.2878 13.0707 24.9727 12.3413C24.6576 11.612 24.5 10.8322 24.5 10.002C24.5 9.17178 24.6576 8.39178 24.9727 7.662C25.2873 6.93178 25.7142 6.29644 26.2533 5.756C26.7924 5.21556 27.4273 4.78778 28.158 4.47267C28.8887 4.15756 29.6687 4 30.498 4C31.3273 4 32.1073 4.15756 32.838 4.47267C33.5682 4.78733 34.2036 5.21444 34.744 5.754C35.2844 6.29356 35.7122 6.92844 36.0273 7.65867C36.3424 8.38889 36.5 9.16867 36.5 9.998C36.5 10.8273 36.3427 11.6073 36.028 12.338C35.7133 13.0687 35.2858 13.704 34.7453 14.244C34.2049 14.784 33.5702 15.2118 32.8413 15.5273C32.1124 15.8429 31.3327 16.0004 30.502 16ZM30.5 15.3333C31.9889 15.3333 33.25 14.8167 34.2833 13.7833C35.3167 12.75 35.8333 11.4889 35.8333 10C35.8333 8.51111 35.3167 7.25 34.2833 6.21667C33.25 5.18333 31.9889 4.66667 30.5 4.66667C29.0111 4.66667 27.75 5.18333 26.7167 6.21667C25.6833 7.25 25.1667 8.51111 25.1667 10C25.1667 11.4889 25.6833 12.75 26.7167 13.7833C27.75 14.8167 29.0111 15.3333 30.5 15.3333Z" fill="#777777"/>
</svg>
