<svg width="20" height="21" viewBox="0 0 20 21" fill="none" xmlns="http://www.w3.org/2000/svg">
<path d="M11.73 19.0532C11.5542 19.3412 11.3018 19.5802 10.9982 19.7464C10.6946 19.9125 10.3504 20 10 20C9.64962 20 9.30539 19.9125 9.00177 19.7464C8.69816 19.5802 8.44581 19.3412 8.27 19.0532M16 6.70101C16 5.18901 15.3679 3.73893 14.2426 2.66979C13.1174 1.60064 11.5913 1 10 1C8.4087 1 6.88258 1.60064 5.75736 2.66979C4.63214 3.73893 4 5.18901 4 6.70101C4 13.3522 1 15.2525 1 15.2525H19C19 15.2525 16 13.3522 16 6.70101Z" stroke="black" stroke-width="2" stroke-linecap="round" stroke-linejoin="round"/>
</svg>
