<svg width="32" height="32" viewBox="0 0 32 32" fill="none" xmlns="http://www.w3.org/2000/svg">
<path d="M24.0004 24C24.5308 24 25.0395 23.7893 25.4146 23.4142C25.7896 23.0391 26.0004 22.5304 26.0004 22V17.116C26.0004 16.5856 25.7896 16.0769 25.4146 15.7018C25.0395 15.3267 24.5308 15.116 24.0004 15.116H21.2244C21.2244 14.4133 21.2657 13.7107 21.3484 13.008C21.4724 12.264 21.679 11.6027 21.9684 11.024C22.2577 10.4453 22.6304 9.99 23.0864 9.658C23.5397 9.286 24.1184 9.1 24.8224 9.1V6C23.665 6 22.6517 6.248 21.7824 6.744C20.919 7.23375 20.1773 7.91191 19.6124 8.728C19.0436 9.6263 18.6248 10.6112 18.3724 11.644C18.1171 12.7835 17.9923 13.9483 18.0004 15.116V22C18.0004 22.5304 18.2111 23.0391 18.5862 23.4142C18.9612 23.7893 19.4699 24 20.0004 24H24.0004ZM12.0004 24C12.5308 24 13.0395 23.7893 13.4146 23.4142C13.7897 23.0391 14.0004 22.5304 14.0004 22V17.116C14.0004 16.5856 13.7897 16.0769 13.4146 15.7018C13.0395 15.3267 12.5308 15.116 12.0004 15.116H9.22436C9.22436 14.4133 9.2657 13.7107 9.34836 13.008C9.4737 12.264 9.68037 11.6027 9.96836 11.024C10.2577 10.4453 10.6304 9.99 11.0864 9.658C11.5397 9.286 12.1184 9.1 12.8224 9.1V6C11.665 6 10.6517 6.248 9.78236 6.744C8.91905 7.23375 8.17731 7.91191 7.61236 8.728C7.04359 9.6263 6.62478 10.6112 6.37236 11.644C6.11713 12.7835 5.99233 13.9483 6.00036 15.116V22C6.00036 22.5304 6.21108 23.0391 6.58615 23.4142C6.96122 23.7893 7.46993 24 8.00036 24H12.0004Z" fill="white"/>
</svg>
