<svg width="25" height="24" viewBox="0 0 25 24" fill="none" xmlns="http://www.w3.org/2000/svg">
<path d="M10.6006 3H4.60059C4.33537 3 4.08102 3.10536 3.89348 3.29289C3.70594 3.48043 3.60059 3.73478 3.60059 4V10C3.60059 10.2652 3.70594 10.5196 3.89348 10.7071C4.08102 10.8946 4.33537 11 4.60059 11H10.6006C10.8658 11 11.1202 10.8946 11.3077 10.7071C11.4952 10.5196 11.6006 10.2652 11.6006 10V4C11.6006 3.73478 11.4952 3.48043 11.3077 3.29289C11.1202 3.10536 10.8658 3 10.6006 3ZM20.6006 3H14.6006C14.3354 3 14.081 3.10536 13.8935 3.29289C13.7059 3.48043 13.6006 3.73478 13.6006 4V10C13.6006 10.2652 13.7059 10.5196 13.8935 10.7071C14.081 10.8946 14.3354 11 14.6006 11H20.6006C20.8658 11 21.1202 10.8946 21.3077 10.7071C21.4952 10.5196 21.6006 10.2652 21.6006 10V4C21.6006 3.73478 21.4952 3.48043 21.3077 3.29289C21.1202 3.10536 20.8658 3 20.6006 3ZM10.6006 13H4.60059C4.33537 13 4.08102 13.1054 3.89348 13.2929C3.70594 13.4804 3.60059 13.7348 3.60059 14V20C3.60059 20.2652 3.70594 20.5196 3.89348 20.7071C4.08102 20.8946 4.33537 21 4.60059 21H10.6006C10.8658 21 11.1202 20.8946 11.3077 20.7071C11.4952 20.5196 11.6006 20.2652 11.6006 20V14C11.6006 13.7348 11.4952 13.4804 11.3077 13.2929C11.1202 13.1054 10.8658 13 10.6006 13ZM17.6006 13C18.3832 13 19.1486 13.2296 19.802 13.6603C20.4554 14.091 20.9682 14.7039 21.2767 15.4232C21.5852 16.1424 21.6759 16.9363 21.5377 17.7066C21.3994 18.4769 21.0382 19.1898 20.4989 19.7568C19.9595 20.3239 19.2656 20.7202 18.5032 20.8968C17.7408 21.0734 16.9433 21.0225 16.2095 20.7503C15.4758 20.4782 14.838 19.9967 14.3751 19.3657C13.9123 18.7346 13.6447 17.9816 13.6056 17.2L13.6006 17L13.6056 16.8C13.6569 15.775 14.1002 14.809 14.8438 14.1017C15.5874 13.3944 16.5743 13 17.6006 13Z" fill="#777777"/>
</svg>
