<svg width="56" height="56" viewBox="0 0 56 56" fill="none" xmlns="http://www.w3.org/2000/svg">
<g clip-path="url(#clip0_2246_35447)">
<path d="M56 28C56 35.4261 53.05 42.548 47.799 47.799C42.548 53.05 35.4261 56 28 56C20.5739 56 13.452 53.05 8.20101 47.799C2.94999 42.548 0 35.4261 0 28C0 20.5739 2.94999 13.452 8.20101 8.20101C13.452 2.94999 20.5739 0 28 0C35.4261 0 42.548 2.94999 47.799 8.20101C53.05 13.452 56 20.5739 56 28ZM42.105 17.395C41.855 17.1459 41.5573 16.9497 41.2298 16.8183C40.9022 16.6868 40.5515 16.6228 40.1986 16.6299C39.8458 16.6371 39.498 16.7154 39.176 16.8601C38.8541 17.0048 38.5647 17.2129 38.325 17.472L26.1695 32.9595L18.844 25.6305C18.3464 25.1668 17.6882 24.9144 17.0082 24.9264C16.3281 24.9384 15.6793 25.2139 15.1983 25.6948C14.7174 26.1758 14.4419 26.8246 14.4299 27.5047C14.4179 28.1847 14.6703 28.8429 15.134 29.3405L24.395 38.605C24.6445 38.854 24.9416 39.0503 25.2685 39.182C25.5955 39.3137 25.9457 39.3782 26.2981 39.3717C26.6506 39.3652 26.9981 39.2877 27.3199 39.144C27.6418 39.0002 27.9314 38.7931 28.1715 38.535L42.1435 21.07C42.6198 20.5747 42.883 19.9125 42.8764 19.2254C42.8699 18.5382 42.5942 17.8811 42.1085 17.395H42.105Z" fill="black"/>
</g>
<defs>
<clipPath id="clip0_2246_35447">
<rect width="56" height="56" fill="white"/>
</clipPath>
</defs>
</svg>
