<svg width="24" height="24" viewBox="0 0 24 24" fill="none" xmlns="http://www.w3.org/2000/svg">
<path d="M12.0002 13.2252L7.7127 17.5127C7.55228 17.6731 7.34811 17.7533 7.1002 17.7533C6.85228 17.7533 6.64811 17.6731 6.48769 17.5127C6.32728 17.3523 6.24707 17.1481 6.24707 16.9002C6.24707 16.6523 6.32728 16.4481 6.48769 16.2877L10.7752 12.0002L6.48769 7.7127C6.32728 7.55228 6.24707 7.34811 6.24707 7.1002C6.24707 6.85228 6.32728 6.64811 6.48769 6.48769C6.64811 6.32728 6.85228 6.24707 7.1002 6.24707C7.34811 6.24707 7.55228 6.32728 7.7127 6.48769L12.0002 10.7752L16.2877 6.48769C16.4481 6.32728 16.6523 6.24707 16.9002 6.24707C17.1481 6.24707 17.3523 6.32728 17.5127 6.48769C17.6731 6.64811 17.7533 6.85228 17.7533 7.1002C17.7533 7.34811 17.6731 7.55228 17.5127 7.7127L13.2252 12.0002L17.5127 16.2877C17.6731 16.4481 17.7533 16.6523 17.7533 16.9002C17.7533 17.1481 17.6731 17.3523 17.5127 17.5127C17.3523 17.6731 17.1481 17.7533 16.9002 17.7533C16.6523 17.7533 16.4481 17.6731 16.2877 17.5127L12.0002 13.2252Z" fill="black"/>
</svg>
