<svg width="8" height="8" viewBox="0 0 8 8" fill="none" xmlns="http://www.w3.org/2000/svg">
<path d="M4.00046 4.81712L1.14212 7.67546C1.03518 7.7824 0.899067 7.83587 0.733789 7.83587C0.568511 7.83587 0.4324 7.7824 0.325456 7.67546C0.218511 7.56851 0.165039 7.4324 0.165039 7.26712C0.165039 7.10184 0.218511 6.96573 0.325456 6.85879L3.18379 4.00046L0.325456 1.14212C0.218511 1.03518 0.165039 0.899067 0.165039 0.733789C0.165039 0.568511 0.218511 0.4324 0.325456 0.325456C0.4324 0.218511 0.568511 0.165039 0.733789 0.165039C0.899067 0.165039 1.03518 0.218511 1.14212 0.325456L4.00046 3.18379L6.85879 0.325456C6.96573 0.218511 7.10184 0.165039 7.26712 0.165039C7.4324 0.165039 7.56851 0.218511 7.67546 0.325456C7.7824 0.4324 7.83587 0.568511 7.83587 0.733789C7.83587 0.899067 7.7824 1.03518 7.67546 1.14212L4.81712 4.00046L7.67546 6.85879C7.7824 6.96573 7.83587 7.10184 7.83587 7.26712C7.83587 7.4324 7.7824 7.56851 7.67546 7.67546C7.56851 7.7824 7.4324 7.83587 7.26712 7.83587C7.10184 7.83587 6.96573 7.7824 6.85879 7.67546L4.00046 4.81712Z" fill="black"/>
</svg>
