<svg width="16" height="16" viewBox="0 0 16 16" fill="none" xmlns="http://www.w3.org/2000/svg">
<path d="M2.18038 4.21499C2.11359 4.14631 2.03502 4.09263 1.94916 4.05699C1.8633 4.02135 1.77183 4.00447 1.67998 4.0073C1.58812 4.01012 1.49767 4.03261 1.4138 4.07347C1.32993 4.11433 1.25428 4.17276 1.19116 4.24544C1.12805 4.31811 1.0787 4.40359 1.04595 4.49701C1.0132 4.59044 0.997681 4.68996 1.00028 4.78991C1.00288 4.88985 1.02354 4.98826 1.0611 5.07952C1.09865 5.17078 1.15236 5.25309 1.21915 5.32177L7.51545 11.7919C7.64534 11.9256 7.81732 12 7.99607 12C8.17482 12 8.34679 11.9256 8.47669 11.7919L14.7737 5.32177C14.8419 5.25355 14.8971 5.17125 14.9358 5.07966C14.9746 4.98806 14.9963 4.889 14.9996 4.78822C15.0029 4.68745 14.9877 4.58696 14.955 4.49261C14.9223 4.39825 14.8727 4.31191 14.8091 4.23859C14.7454 4.16527 14.669 4.10644 14.5843 4.06551C14.4996 4.02458 14.4083 4.00238 14.3156 4.00018C14.223 3.99799 14.1309 4.01584 14.0446 4.05272C13.9583 4.08959 13.8797 4.14475 13.8132 4.21499L7.99607 10.1919L2.18038 4.21499Z" fill="#575757"/>
</svg>
