<svg width="30" height="30" viewBox="0 0 30 30" fill="none" xmlns="http://www.w3.org/2000/svg">
<path d="M23.9368 5.65576C20.8568 3.55576 17.0534 4.53576 15.0001 6.9391C12.9468 4.53576 9.14342 3.5441 6.06342 5.65576C4.43009 6.77576 3.40342 8.66576 3.33342 10.6608C3.17009 15.1874 7.18342 18.8158 13.3084 24.3808L13.4251 24.4858C14.3118 25.2908 15.6768 25.2908 16.5634 24.4741L16.6918 24.3574C22.8168 18.8041 26.8184 15.1758 26.6668 10.6491C26.5968 8.66576 25.5701 6.77576 23.9368 5.65576Z" fill="#202020" fill-opacity="0.15"/>
<path d="M23.9368 5.65576C20.8568 3.55576 17.0534 4.53576 15.0001 6.9391C12.9468 4.53576 9.14342 3.5441 6.06342 5.65576C4.43009 6.77576 3.40342 8.66576 3.33342 10.6608C3.17009 15.1874 7.18342 18.8158 13.3084 24.3808L13.4251 24.4858C14.3118 25.2908 15.6768 25.2908 16.5634 24.4741L16.6918 24.3574C22.8168 18.8041 26.8184 15.1758 26.6668 10.6491C26.5968 8.66576 25.5701 6.77576 23.9368 5.65576ZM15.1168 22.6424L15.0001 22.7591L14.8834 22.6424C9.33009 17.6141 5.66675 14.2891 5.66675 10.9174C5.66675 8.5841 7.41675 6.8341 9.75009 6.8341C11.5468 6.8341 13.2968 7.9891 13.9151 9.58743H16.0968C16.7034 7.9891 18.4534 6.8341 20.2501 6.8341C22.5834 6.8341 24.3334 8.5841 24.3334 10.9174C24.3334 14.2891 20.6701 17.6141 15.1168 22.6424Z" fill="#F8F8F8"/>
</svg>
