<svg width="80" height="80" viewBox="0 0 80 80" fill="none" xmlns="http://www.w3.org/2000/svg">
<path d="M0 40C0 17.9086 17.9086 0 40 0C62.0914 0 80 17.9086 80 40C80 62.0914 62.0914 80 40 80C17.9086 80 0 62.0914 0 40Z" fill="#F3F9EB"/>
<path d="M40 56.8438C42.0719 56.8438 43.75 58.5568 43.75 60.6719C43.75 62.7869 42.0719 64.5 40 64.5C37.9281 64.5 36.25 62.7869 36.25 60.6719C36.25 58.5568 37.9281 56.8438 40 56.8438ZM40 15.5C42.4844 15.5 44.5 17.5576 44.5 20.0938C44.5 20.1512 44.5 20.199 44.5 20.2564L43 49.3502C42.9156 50.9771 41.5938 52.25 40 52.25C38.4062 52.25 37.0938 50.9771 37 49.3502L35.5 20.2564C35.5 20.199 35.5 20.1512 35.5 20.0938C35.5 17.5576 37.5156 15.5 40 15.5Z" fill="#86C53A"/>
</svg>
