<svg width="80" height="80" viewBox="0 0 80 80" fill="none" xmlns="http://www.w3.org/2000/svg">
<path d="M0 40C0 17.9086 17.9086 0 40 0C62.0914 0 80 17.9086 80 40C80 62.0914 62.0914 80 40 80C17.9086 80 0 62.0914 0 40Z" fill="#F3F9EB"/>
<path d="M55.3144 35.4033C55.3144 39.7955 53.8884 43.8527 51.4861 47.1444L63.6027 59.2682C64.7991 60.4643 64.7991 62.4068 63.6027 63.6029C62.4064 64.799 60.4635 64.799 59.2672 63.6029L47.1506 51.4791C43.8582 53.8809 39.8002 55.3067 35.4072 55.3067C24.4104 55.3067 15.5 46.398 15.5 35.4033C15.5 24.4087 24.4104 15.5 35.4072 15.5C46.404 15.5 55.3144 24.4087 55.3144 35.4033ZM35.4072 49.1826C43.016 49.1826 49.1891 43.0106 49.1891 35.4033C49.1891 27.7961 43.016 21.6241 35.4072 21.6241C27.7985 21.6241 21.6253 27.7961 21.6253 35.4033C21.6253 43.0106 27.7985 49.1826 35.4072 49.1826Z" fill="#86C53A"/>
</svg>
