<svg width="24" height="24" viewBox="0 0 24 24" fill="none" xmlns="http://www.w3.org/2000/svg">
<g clip-path="url(#clip0_3978_37370)">
<path d="M16.7934 13.5991C16.9846 13.0874 17.0817 12.5454 17.0801 11.9991C17.0801 10.7862 16.5983 9.62295 15.7406 8.76528C14.8829 7.90761 13.7197 7.42578 12.5068 7.42578C11.9672 7.42655 11.4322 7.52363 10.9268 7.71245L12.0001 8.81911C12.1633 8.79357 12.3282 8.7802 12.4934 8.77911C13.351 8.77732 14.1745 9.11494 14.7841 9.71824C15.3936 10.3215 15.7397 11.1415 15.7468 11.9991C15.7457 12.1643 15.7323 12.3292 15.7068 12.4924L16.7934 13.5991Z" fill="#A6A6A6"/>
<path d="M22.8598 11.6862C20.6132 7.53286 16.6732 5.01953 12.3132 5.01953C11.126 5.02209 9.94688 5.21337 8.81982 5.5862L9.89316 6.6662C10.6838 6.46202 11.4966 6.35677 12.3132 6.35286C16.0665 6.35286 19.4798 8.4462 21.5132 11.9729C20.7666 13.2808 19.7779 14.4347 18.5998 15.3729L19.5465 16.3195C20.9109 15.2195 22.0438 13.86 22.8798 12.3195L23.0532 11.9995L22.8598 11.6862Z" fill="#A6A6A6"/>
<path d="M3.24643 3.85271L6.21976 6.82604C4.33998 8.03565 2.80387 9.70954 1.75976 11.686L1.58643 11.9994L1.75976 12.3194C4.00643 16.4727 7.94642 18.986 12.3064 18.986C14.0083 18.9864 15.6881 18.6012 17.2198 17.8594L20.5531 21.1927L21.7198 20.1927L4.38643 2.85938L3.24643 3.85271ZM9.74643 10.3527L14.1798 14.786C13.679 15.0964 13.1022 15.2625 12.5131 15.266C12.085 15.2661 11.6612 15.1814 11.266 15.017C10.8708 14.8526 10.512 14.6117 10.2103 14.3081C9.90851 14.0045 9.66978 13.6442 9.5078 13.248C9.34582 12.8517 9.26379 12.4274 9.26642 11.9994C9.2736 11.417 9.43956 10.8477 9.74643 10.3527ZM8.77976 9.38604C8.15605 10.2656 7.86371 11.3376 7.9545 12.412C8.04529 13.4865 8.51336 14.4942 9.27583 15.2566C10.0383 16.0191 11.046 16.4872 12.1204 16.578C13.1949 16.6688 14.2668 16.3764 15.1464 15.7527L16.2131 16.8194C14.9783 17.3474 13.6493 17.6195 12.3064 17.6194C8.55309 17.6194 5.13976 15.526 3.10643 11.9994C4.08247 10.2717 5.48776 8.82508 7.18643 7.79938L8.77976 9.38604Z" fill="#A6A6A6"/>
</g>
<defs>
<clipPath id="clip0_3978_37370">
<rect width="24" height="24" fill="white"/>
</clipPath>
</defs>
</svg>
