<svg width="20" height="20" viewBox="0 0 20 20" fill="none" xmlns="http://www.w3.org/2000/svg">
<g clip-path="url(#clip0_3978_36663)">
<path d="M13.9944 11.3339C14.1537 10.9075 14.2346 10.4558 14.2332 10.0006C14.2332 8.98979 13.8317 8.02042 13.117 7.3057C12.4023 6.59098 11.4329 6.18945 10.4221 6.18945C9.97253 6.1901 9.52665 6.271 9.10547 6.42834L9.99991 7.35056C10.1359 7.32928 10.2734 7.31814 10.411 7.31723C11.1257 7.31574 11.812 7.59709 12.3199 8.09984C12.8279 8.60259 13.1163 9.2859 13.1221 10.0006C13.1212 10.1382 13.1101 10.2757 13.0888 10.4117L13.9944 11.3339Z" fill="#919191"/>
<path d="M19.0501 9.73915C17.1779 6.27804 13.8945 4.18359 10.2612 4.18359C9.27194 4.18573 8.28931 4.34512 7.3501 4.65582L8.24454 5.55582C8.90337 5.38567 9.58077 5.29796 10.2612 5.2947C13.389 5.2947 16.2334 7.03915 17.9279 9.97804C17.3057 11.068 16.4818 12.0295 15.5001 12.8114L16.289 13.6003C17.426 12.6835 18.3701 11.5506 19.0668 10.2669L19.2112 10.0003L19.0501 9.73915Z" fill="#919191"/>
<path d="M2.7056 3.21059L5.18338 5.68837C3.6169 6.69638 2.3368 8.09128 1.46671 9.73837L1.32227 9.99948L1.46671 10.2661C3.33893 13.7273 6.62226 15.8217 10.2556 15.8217C11.6738 15.822 13.0737 15.501 14.35 14.8828L17.1278 17.6606L18.1 16.8273L3.6556 2.38281L2.7056 3.21059ZM8.12227 8.62726L11.8167 12.3217C11.3994 12.5803 10.9188 12.7188 10.4278 12.7217C10.0711 12.7217 9.71793 12.6512 9.38859 12.5142C9.05924 12.3772 8.76024 12.1764 8.50879 11.9234C8.25733 11.6704 8.05839 11.3701 7.92341 11.04C7.78843 10.7098 7.72007 10.3562 7.72227 9.99948C7.72825 9.51419 7.86655 9.03974 8.12227 8.62726ZM7.31671 7.8217C6.79695 8.5547 6.55334 9.44798 6.629 10.3434C6.70466 11.2387 7.09471 12.0785 7.7301 12.7139C8.36549 13.3493 9.20522 13.7393 10.1006 13.815C10.996 13.8906 11.8893 13.647 12.6223 13.1273L13.5112 14.0161C12.4822 14.4561 11.3747 14.6829 10.2556 14.6828C7.12782 14.6828 4.28338 12.9384 2.58893 9.99948C3.40231 8.55975 4.57338 7.35423 5.98893 6.49948L7.31671 7.8217Z" fill="#919191"/>
</g>
<defs>
<clipPath id="clip0_3978_36663">
<rect width="20" height="20" fill="white"/>
</clipPath>
</defs>
</svg>
