<svg width="24" height="24" viewBox="0 0 24 24" fill="none" xmlns="http://www.w3.org/2000/svg">
<g clip-path="url(#clip0_3978_37372)">
<path d="M22.4132 11.6862C20.1665 7.53286 16.2265 5.01953 11.8665 5.01953C7.50648 5.01953 3.55982 7.53286 1.33315 11.6862L1.14648 11.9995L1.31982 12.3195C3.56648 16.4729 7.50648 18.9862 11.8665 18.9862C16.2265 18.9862 20.1732 16.5062 22.4132 12.3195L22.5865 11.9995L22.4132 11.6862ZM11.8665 17.6195C8.11315 17.6195 4.66648 15.5262 2.66648 11.9995C4.66648 8.47286 8.11315 6.37953 11.8665 6.37953C15.6198 6.37953 19.0265 8.47953 21.0598 11.9995C19.0265 15.5262 15.6132 17.6195 11.8665 17.6195Z" fill="#A6A6A6"/>
<path d="M12.06 7.44739C11.1561 7.45398 10.2744 7.72831 9.52626 8.23571C8.77815 8.74311 8.19719 9.46083 7.85676 10.2982C7.51632 11.1356 7.43167 12.0551 7.61351 12.9406C7.79534 13.826 8.23551 14.6378 8.8784 15.2732C9.5213 15.9087 10.3381 16.3393 11.2256 16.5109C12.1131 16.6824 13.0316 16.587 13.865 16.2369C14.6983 15.8867 15.4092 15.2974 15.9079 14.5434C16.4065 13.7895 16.6706 12.9047 16.6666 12.0007C16.664 11.399 16.5427 10.8037 16.3096 10.249C16.0765 9.69427 15.7363 9.19098 15.3083 8.76799C14.8804 8.345 14.3731 8.01061 13.8157 7.784C13.2583 7.55739 12.6617 7.443 12.06 7.44739ZM12.06 15.2607C11.4215 15.2541 10.7992 15.059 10.2712 14.6999C9.74321 14.3408 9.33311 13.8337 9.09241 13.2423C8.8517 12.6509 8.79111 12.0015 8.91825 11.3758C9.0454 10.75 9.3546 10.1758 9.80703 9.7252C10.2595 9.27461 10.8349 8.96775 11.4612 8.84316C12.0875 8.71858 12.7366 8.78182 13.327 9.02494C13.9174 9.26806 14.4229 9.68022 14.7798 10.2097C15.1368 10.7391 15.3293 11.3622 15.3333 12.0007C15.3351 12.4305 15.2515 12.8563 15.0875 13.2535C14.9235 13.6507 14.6822 14.0113 14.3777 14.3146C14.0732 14.6178 13.7116 14.8576 13.3137 15.02C12.9158 15.1824 12.4897 15.2643 12.06 15.2607Z" fill="#A6A6A6"/>
</g>
<defs>
<clipPath id="clip0_3978_37372">
<rect width="24" height="24" fill="white"/>
</clipPath>
</defs>
</svg>
