<svg width="16" height="16" viewBox="0 0 16 16" fill="none" xmlns="http://www.w3.org/2000/svg">
<path d="M6.75 3C6.36209 2.99979 5.98367 3.12331 5.66689 3.35355C5.3501 3.58378 5.11055 3.90938 4.98125 4.28549H3V5.57098H4.98125C5.11038 5.94733 5.34984 6.27322 5.66662 6.50374C5.98341 6.73425 6.36193 6.85804 6.75 6.85804C7.13807 6.85804 7.51659 6.73425 7.83337 6.50374C8.15016 6.27322 8.38962 5.94733 8.51875 5.57098H13V4.28549H8.51875C8.38945 3.90938 8.1499 3.58378 7.83311 3.35355C7.51633 3.12331 7.13791 2.99979 6.75 3ZM6.125 4.92823C6.125 4.75777 6.19085 4.59428 6.30806 4.47375C6.42527 4.35321 6.58424 4.28549 6.75 4.28549C6.91576 4.28549 7.07473 4.35321 7.19194 4.47375C7.30915 4.59428 7.375 4.75777 7.375 4.92823C7.375 5.0987 7.30915 5.26219 7.19194 5.38272C7.07473 5.50326 6.91576 5.57098 6.75 5.57098C6.58424 5.57098 6.42527 5.50326 6.30806 5.38272C6.19085 5.26219 6.125 5.0987 6.125 4.92823ZM9.25 8.14196C8.86209 8.14175 8.48367 8.26527 8.16689 8.4955C7.8501 8.72573 7.61055 9.05134 7.48125 9.42745H3V10.7129H7.48125C7.61038 11.0893 7.84984 11.4152 8.16662 11.6457C8.48341 11.8762 8.86193 12 9.25 12C9.63807 12 10.0166 11.8762 10.3334 11.6457C10.6502 11.4152 10.8896 11.0893 11.0187 10.7129H13V9.42745H11.0187C10.8894 9.05134 10.6499 8.72573 10.3331 8.4955C10.0163 8.26527 9.63791 8.14175 9.25 8.14196ZM8.625 10.0702C8.625 9.89972 8.69085 9.73624 8.80806 9.6157C8.92527 9.49516 9.08424 9.42745 9.25 9.42745C9.41576 9.42745 9.57473 9.49516 9.69194 9.6157C9.80915 9.73624 9.875 9.89972 9.875 10.0702C9.875 10.2407 9.80915 10.4041 9.69194 10.5247C9.57473 10.6452 9.41576 10.7129 9.25 10.7129C9.08424 10.7129 8.92527 10.6452 8.80806 10.5247C8.69085 10.4041 8.625 10.2407 8.625 10.0702Z" fill="black"/>
</svg>
