<svg width="20" height="20" viewBox="0 0 20 20" fill="none" xmlns="http://www.w3.org/2000/svg">
<path d="M16.6667 6.66663H11.9901L12.9259 3.86079C13.0942 3.35413 13.0092 2.79246 12.6967 2.35913C12.3842 1.92579 11.8776 1.66663 11.3434 1.66663H10.0001C9.75258 1.66663 9.51841 1.77663 9.35925 1.96663L5.44258 6.66663H3.33341C2.41425 6.66663 1.66675 7.41413 1.66675 8.33329V15.8333C1.66675 16.7525 2.41425 17.5 3.33341 17.5H14.4226C14.7617 17.4988 15.0924 17.3948 15.3711 17.2017C15.6498 17.0086 15.8633 16.7354 15.9834 16.4183L18.2809 10.2925C18.3158 10.1989 18.3336 10.0998 18.3334 9.99996V8.33329C18.3334 7.41413 17.5859 6.66663 16.6667 6.66663ZM3.33341 8.33329H5.00008V15.8333H3.33341V8.33329ZM16.6667 9.84913L14.4226 15.8333H6.66675V7.80163L10.3901 3.33329H11.3451L10.0434 7.23579C10.0012 7.36105 9.98937 7.49459 10.009 7.62531C10.0287 7.75604 10.0792 7.8802 10.1565 7.98749C10.2337 8.09479 10.3354 8.18212 10.4531 8.24226C10.5708 8.3024 10.7012 8.3336 10.8334 8.33329H16.6667V9.84913Z" fill="#898989"/>
</svg>
