<svg width="24" height="24" viewBox="0 0 24 24" fill="none" xmlns="http://www.w3.org/2000/svg">
<path d="M9.01981 11.6202C8.54084 11.6202 8.1396 11.4583 7.8161 11.1345C7.4926 10.8113 7.33085 10.4105 7.33085 9.93209V4.68805C7.33085 4.22424 7.4926 3.82728 7.8161 3.49718C8.1396 3.16638 8.54049 3.00098 9.01876 3.00098H15.5362V11.6192L9.01981 11.6202ZM16.5809 11.6202V3.00202H19.7183C20.1868 3.00202 20.5856 3.16707 20.9147 3.49718C21.2438 3.82728 21.4083 4.22424 21.4083 4.68805V9.93209C21.4083 10.4105 21.2427 10.811 20.9115 11.1334C20.5811 11.4572 20.1837 11.6192 19.7193 11.6192L16.5809 11.6202ZM7.57243 19.995V12.6648H15.9315C16.1197 12.6648 16.2815 12.7143 16.4167 12.8132C16.552 12.9121 16.6475 13.0374 16.7033 13.1892C16.759 13.3411 16.7754 13.4943 16.7524 13.6489C16.7294 13.8049 16.6489 13.941 16.5108 14.0573L15.0478 15.3172H10.5697V16.3012H15.3761L17.6204 14.4094C17.9237 14.1573 18.2517 13.9762 18.6045 13.8662C18.9573 13.7561 19.3164 13.7168 19.6817 13.7481C20.047 13.7795 20.3932 13.8742 20.7202 14.0323C21.0471 14.1903 21.3351 14.4163 21.584 14.7102L16.3655 19.0715C16.0085 19.371 15.617 19.597 15.191 19.7495C14.7644 19.9013 14.3206 19.9842 13.8597 19.9981L7.57243 19.995ZM3.42899 21.001C3.18985 21.001 2.98906 20.9202 2.82661 20.7586C2.66417 20.5971 2.58329 20.3965 2.58399 20.1569V13.488C2.58399 13.2582 2.66486 13.0601 2.82661 12.8936C2.98836 12.7272 3.18916 12.6439 3.42899 12.6439H6.52559V20.1569C6.52559 20.3958 6.44193 20.5964 6.2746 20.7586C6.10866 20.9202 5.91101 21.001 5.68163 21.001H3.42899Z" fill="black"/>
</svg>
