<svg width="25" height="24" viewBox="0 0 25 24" fill="none" xmlns="http://www.w3.org/2000/svg">
<path d="M4.2002 19.83V9.66064C4.2002 9.36113 4.26572 9.07761 4.39677 8.81008C4.52781 8.54254 4.70839 8.3222 4.93848 8.14904L11.0928 3.3779C11.4151 3.12597 11.7831 3 12.1968 3C12.6105 3 12.9808 3.12597 13.3076 3.3779L19.4619 8.14787C19.6928 8.32103 19.8733 8.54176 20.0036 8.81008C20.1347 9.07761 20.2002 9.36113 20.2002 9.66064V19.83C20.2002 20.1436 20.0863 20.417 19.8585 20.6502C19.6307 20.8834 19.3636 21 19.0573 21H15.1899C14.9278 21 14.7084 20.9095 14.5316 20.7286C14.3549 20.5468 14.2665 20.3222 14.2665 20.0547V14.4751C14.2665 14.2075 14.1781 13.9833 14.0013 13.8023C13.8238 13.6206 13.6044 13.5297 13.3431 13.5297H11.0573C10.796 13.5297 10.577 13.6206 10.4002 13.8023C10.2227 13.9833 10.1339 14.2075 10.1339 14.4751V20.0558C10.1339 20.3234 10.0455 20.5476 9.86877 20.7286C9.69201 20.9095 9.47296 21 9.21162 21H5.34305C5.03677 21 4.76972 20.8834 4.54191 20.6502C4.3141 20.417 4.2002 20.1436 4.2002 19.83Z" fill="#898989"/>
</svg>
