<svg width="24" height="24" viewBox="0 0 24 24" fill="none" xmlns="http://www.w3.org/2000/svg">
<path d="M4 19.83V9.66064C4 9.36113 4.06552 9.07761 4.19657 8.81008C4.32762 8.54254 4.50819 8.3222 4.73829 8.14904L10.8926 3.3779C11.2149 3.12597 11.5829 3 11.9966 3C12.4103 3 12.7806 3.12597 13.1074 3.3779L19.2617 8.14787C19.4926 8.32103 19.6731 8.54176 19.8034 8.81008C19.9345 9.07761 20 9.36113 20 9.66064V19.83C20 20.1436 19.8861 20.417 19.6583 20.6502C19.4305 20.8834 19.1634 21 18.8571 21H14.9897C14.7276 21 14.5082 20.9095 14.3314 20.7286C14.1547 20.5468 14.0663 20.3222 14.0663 20.0547V14.4751C14.0663 14.2075 13.9779 13.9833 13.8011 13.8023C13.6236 13.6206 13.4042 13.5297 13.1429 13.5297H10.8571C10.5958 13.5297 10.3768 13.6206 10.2 13.8023C10.0225 13.9833 9.93371 14.2075 9.93371 14.4751V20.0558C9.93371 20.3234 9.84533 20.5476 9.66857 20.7286C9.49181 20.9095 9.27276 21 9.01143 21H5.14286C4.83657 21 4.56952 20.8834 4.34171 20.6502C4.1139 20.417 4 20.1436 4 19.83Z" fill="black"/>
</svg>
