<svg width="24" height="24" viewBox="0 0 24 24" fill="none" xmlns="http://www.w3.org/2000/svg">
<path d="M6 23.0004C5.45 23.0004 4.97917 22.8046 4.5875 22.4129C4.19583 22.0212 4 21.5504 4 21.0004V10.0004C4 9.45039 4.19583 8.97956 4.5875 8.58789C4.97917 8.19622 5.45 8.00039 6 8.00039H8C8.28333 8.00039 8.52083 8.09622 8.7125 8.28789C8.90417 8.47956 9 8.71706 9 9.00039C9 9.28372 8.90417 9.52122 8.7125 9.71289C8.52083 9.90456 8.28333 10.0004 8 10.0004H6V21.0004H18V10.0004H16C15.7167 10.0004 15.4792 9.90456 15.2875 9.71289C15.0958 9.52122 15 9.28372 15 9.00039C15 8.71706 15.0958 8.47956 15.2875 8.28789C15.4792 8.09622 15.7167 8.00039 16 8.00039H18C18.55 8.00039 19.0208 8.19622 19.4125 8.58789C19.8042 8.97956 20 9.45039 20 10.0004V21.0004C20 21.5504 19.8042 22.0212 19.4125 22.4129C19.0208 22.8046 18.55 23.0004 18 23.0004H6ZM11 4.82539L10.1 5.72539C9.9 5.92539 9.66667 6.02122 9.4 6.01289C9.13333 6.00456 8.9 5.90039 8.7 5.70039C8.51667 5.50039 8.42083 5.26706 8.4125 5.00039C8.40417 4.73372 8.5 4.50039 8.7 4.30039L11.3 1.70039C11.5 1.50039 11.7333 1.40039 12 1.40039C12.2667 1.40039 12.5 1.50039 12.7 1.70039L15.3 4.30039C15.4833 4.48372 15.575 4.71289 15.575 4.98789C15.575 5.26289 15.4833 5.50039 15.3 5.70039C15.1 5.90039 14.8625 6.00039 14.5875 6.00039C14.3125 6.00039 14.075 5.90039 13.875 5.70039L13 4.82539V15.0004C13 15.2837 12.9042 15.5212 12.7125 15.7129C12.5208 15.9046 12.2833 16.0004 12 16.0004C11.7167 16.0004 11.4792 15.9046 11.2875 15.7129C11.0958 15.5212 11 15.2837 11 15.0004V4.82539Z" fill="black"/>
</svg>
