<svg width="24" height="24" viewBox="0 0 24 24" fill="currentColor" xmlns="http://www.w3.org/2000/svg">
<g clip-path="url(#clip0_2025_3658)">
<path d="M19.6602 3.98968C17.0202 2.18968 13.7602 3.02968 12.0002 5.08968C10.2402 3.02968 6.98021 2.17968 4.34021 3.98968C2.94021 4.94968 2.06021 6.56968 2.00021 8.27968C1.86021 12.1597 5.30021 15.2697 10.5502 20.0397L10.6502 20.1297C11.4102 20.8197 12.5802 20.8197 13.3402 20.1197L13.4502 20.0197C18.7002 15.2597 22.1302 12.1497 22.0002 8.26968C21.9402 6.56968 21.0602 4.94968 19.6602 3.98968ZM12.1002 18.5497L12.0002 18.6497L11.9002 18.5497C7.14021 14.2397 4.00021 11.3897 4.00021 8.49968C4.00021 6.49968 5.50021 4.99968 7.50021 4.99968C9.04021 4.99968 10.5402 5.98968 11.0702 7.35968H12.9402C13.4602 5.98968 14.9602 4.99968 16.5002 4.99968C18.5002 4.99968 20.0002 6.49968 20.0002 8.49968C20.0002 11.3897 16.8602 14.2397 12.1002 18.5497Z" fill="currentColor"/>
</g>
<defs>
<clipPath id="clip0_2025_3658">
<rect width="24" height="24" fill="white"/>
</clipPath>
</defs>
</svg>
