<svg width="14" height="14" viewBox="0 0 14 14" fill="none" xmlns="http://www.w3.org/2000/svg">
<path d="M7 9.625C7.08322 9.625 7.15264 9.597 7.20825 9.541C7.26386 9.485 7.29167 9.41578 7.29167 9.33333V6.70833C7.29167 6.6255 7.26367 6.55628 7.20767 6.50067C7.15167 6.44506 7.08225 6.41706 6.99942 6.41667C6.91658 6.41628 6.84736 6.44428 6.79175 6.50067C6.73614 6.55706 6.70833 6.62628 6.70833 6.70833V9.33333C6.70833 9.41617 6.73633 9.48539 6.79233 9.541C6.84833 9.59661 6.91775 9.62461 7.00058 9.625M7 5.58658C7.10189 5.58658 7.18725 5.55217 7.25608 5.48333C7.32492 5.4145 7.35914 5.32933 7.35875 5.22783C7.35836 5.12633 7.32394 5.04097 7.2555 4.97175C7.18706 4.90253 7.10189 4.86811 7 4.8685C6.89811 4.86889 6.81294 4.90331 6.7445 4.97175C6.67606 5.04019 6.64164 5.12556 6.64125 5.22783C6.64086 5.33011 6.67528 5.41528 6.7445 5.48333C6.81372 5.55139 6.89889 5.58581 7 5.58658ZM7.00175 12.25C6.27569 12.25 5.59319 12.1123 4.95425 11.837C4.31531 11.5613 3.75939 11.1872 3.2865 10.7147C2.81361 10.2422 2.43931 9.68683 2.16358 9.04867C1.88786 8.4105 1.75 7.72819 1.75 7.00175C1.75 6.27531 1.88786 5.59281 2.16358 4.95425C2.43892 4.31531 2.81244 3.75939 3.28417 3.2865C3.75589 2.81361 4.31142 2.43931 4.95075 2.16358C5.59008 1.88786 6.27258 1.75 6.99825 1.75C7.72392 1.75 8.40642 1.88786 9.04575 2.16358C9.68469 2.43892 10.2406 2.81264 10.7135 3.28475C11.1864 3.75686 11.5607 4.31239 11.8364 4.95133C12.1121 5.59028 12.25 6.27258 12.25 6.99825C12.25 7.72392 12.1123 8.40642 11.837 9.04575C11.5617 9.68508 11.1876 10.241 10.7147 10.7135C10.2418 11.186 9.68644 11.5603 9.04867 11.8364C8.41089 12.1125 7.72858 12.2504 7.00175 12.25ZM7 11.6667C8.30278 11.6667 9.40625 11.2146 10.3104 10.3104C11.2146 9.40625 11.6667 8.30278 11.6667 7C11.6667 5.69722 11.2146 4.59375 10.3104 3.68958C9.40625 2.78542 8.30278 2.33333 7 2.33333C5.69722 2.33333 4.59375 2.78542 3.68958 3.68958C2.78542 4.59375 2.33333 5.69722 2.33333 7C2.33333 8.30278 2.78542 9.40625 3.68958 10.3104C4.59375 11.2146 5.69722 11.6667 7 11.6667Z" fill="black"/>
</svg>
