<svg width="32" height="32" viewBox="0 0 32 32" fill="none" xmlns="http://www.w3.org/2000/svg">
<path d="M9.25 23.7143H12.625V18C12.625 17.6762 12.7328 17.4048 12.9484 17.1857C13.1641 16.9667 13.4312 16.8571 13.75 16.8571H18.25C18.5687 16.8571 18.8359 16.9667 19.0516 17.1857C19.2672 17.4048 19.375 17.6762 19.375 18V23.7143H22.75V13.4286L16 8.28571L9.25 13.4286V23.7143ZM7 23.7143V13.4286C7 13.0667 7.07969 12.7238 7.23906 12.4C7.39844 12.0762 7.61875 11.8095 7.9 11.6L14.65 6.45714C15.0437 6.15238 15.4937 6 16 6C16.5062 6 16.9563 6.15238 17.35 6.45714L24.1 11.6C24.3813 11.8095 24.6016 12.0762 24.7609 12.4C24.9203 12.7238 25 13.0667 25 13.4286V23.7143C25 24.3429 24.7797 24.881 24.3391 25.3286C23.8984 25.7762 23.3687 26 22.75 26H18.25C17.9312 26 17.6641 25.8905 17.4484 25.6714C17.2328 25.4524 17.125 25.181 17.125 24.8571V19.1429H14.875V24.8571C14.875 25.181 14.7672 25.4524 14.5516 25.6714C14.3359 25.8905 14.0687 26 13.75 26H9.25C8.63125 26 8.10156 25.7762 7.66094 25.3286C7.22031 24.881 7 24.3429 7 23.7143Z" fill="black"/>
</svg>
