<svg width="21" height="20" viewBox="0 0 21 20" fill="none" xmlns="http://www.w3.org/2000/svg">
<path d="M11.3748 10.0003L7.95817 6.58366C7.80539 6.43088 7.729 6.2538 7.729 6.05241C7.729 5.85102 7.80539 5.67394 7.95817 5.52116C8.11095 5.36838 8.28803 5.29199 8.48942 5.29199C8.69081 5.29199 8.87025 5.37074 9.02775 5.52824L12.979 9.47949C13.0484 9.55449 13.1005 9.63574 13.1353 9.72324C13.17 9.81074 13.1873 9.90449 13.1873 10.0045C13.1873 10.1045 13.17 10.1982 13.1353 10.2857C13.1005 10.3732 13.0484 10.4517 12.979 10.5212L9.02775 14.4724C8.87025 14.6299 8.69428 14.7052 8.49984 14.6982C8.30539 14.6913 8.13178 14.6114 7.979 14.4587C7.82623 14.3059 7.74984 14.1288 7.74984 13.9274C7.74984 13.726 7.82623 13.5489 7.979 13.3962L11.3748 10.0003Z" fill="#434343"/>
</svg>
