<svg width="16" height="16" viewBox="0 0 16 16" fill="none" xmlns="http://www.w3.org/2000/svg">
<path d="M4.21499 13.8196C4.14631 13.8864 4.09263 13.965 4.05699 14.0508C4.02136 14.1367 4.00447 14.2282 4.0073 14.32C4.01012 14.4119 4.03261 14.5023 4.07347 14.5862C4.11433 14.6701 4.17276 14.7457 4.24544 14.8088C4.31811 14.872 4.4036 14.9213 4.49702 14.954C4.59044 14.9868 4.68996 15.0023 4.78991 14.9997C4.88985 14.9971 4.98827 14.9765 5.07952 14.9389C5.17078 14.9014 5.25309 14.8476 5.32177 14.7809L11.7919 8.48455C11.9255 8.35466 12 8.18268 12 8.00393C12 7.82518 11.9255 7.6532 11.7919 7.52331L5.32177 1.22631C5.25355 1.15805 5.17125 1.10294 5.07966 1.06417C4.98806 1.02539 4.889 1.00373 4.78822 1.00044C4.68745 0.997149 4.58696 1.0123 4.49261 1.045C4.39825 1.0777 4.31191 1.12731 4.23859 1.19094C4.16527 1.25457 4.10644 1.33096 4.06551 1.41566C4.02458 1.50036 4.00238 1.5917 4.00018 1.68436C3.99799 1.77701 4.01584 1.86915 4.05272 1.95541C4.08959 2.04167 4.14475 2.12034 4.21499 2.18684L10.1919 8.00393L4.21499 13.8196Z" fill="#A6A6A6"/>
</svg>
