<svg width="14" height="14" viewBox="0 0 14 14" fill="none" xmlns="http://www.w3.org/2000/svg">
<path d="M6.9997 10.0766L4.57887 11.535C4.47193 11.603 4.36012 11.6322 4.24345 11.6225C4.12679 11.6127 4.0247 11.5738 3.9372 11.5058C3.8497 11.4377 3.78165 11.3528 3.73304 11.2509C3.68443 11.149 3.6747 11.0347 3.70387 10.9079L4.34554 8.15163L2.20179 6.29954C2.10456 6.21204 2.0439 6.11229 2.01979 6.00029C1.99568 5.88829 2.00287 5.77902 2.04137 5.67246C2.07987 5.56591 2.1382 5.47841 2.21637 5.40996C2.29454 5.34152 2.40148 5.29777 2.5372 5.27871L5.36637 5.03079L6.46012 2.43496C6.50873 2.31829 6.58418 2.23079 6.68645 2.17246C6.78873 2.11413 6.89315 2.08496 6.9997 2.08496C7.10626 2.08496 7.21068 2.11413 7.31295 2.17246C7.41523 2.23079 7.49068 2.31829 7.53929 2.43496L8.63304 5.03079L11.4622 5.27871C11.5983 5.29816 11.7053 5.34191 11.783 5.40996C11.8608 5.47802 11.9191 5.56552 11.958 5.67246C11.9969 5.77941 12.0043 5.88888 11.9802 6.00088C11.9561 6.11288 11.8952 6.21243 11.7976 6.29954L9.65387 8.15163L10.2955 10.9079C10.3247 11.0343 10.315 11.1486 10.2664 11.2509C10.2178 11.3532 10.1497 11.4381 10.0622 11.5058C9.9747 11.5735 9.87262 11.6123 9.75595 11.6225C9.63929 11.6326 9.52748 11.6034 9.42054 11.535L6.9997 10.0766Z" fill="#8B8B8B"/>
</svg>
