<svg width="32" height="32" viewBox="0 0 32 32" fill="none" xmlns="http://www.w3.org/2000/svg">
<path d="M7 7H10.2727L12.4655 17.8395C12.5403 18.2122 12.7452 18.547 13.0444 18.7853C13.3435 19.0236 13.7178 19.1501 14.1018 19.1429H22.0545C22.4385 19.1501 22.8129 19.0236 23.112 18.7853C23.4112 18.547 23.6161 18.2122 23.6909 17.8395L25 11.0476H11.0909M14.3636 23.1905C14.3636 23.6376 13.9973 24 13.5455 24C13.0936 24 12.7273 23.6376 12.7273 23.1905C12.7273 22.7434 13.0936 22.381 13.5455 22.381C13.9973 22.381 14.3636 22.7434 14.3636 23.1905ZM23.3636 23.1905C23.3636 23.6376 22.9973 24 22.5455 24C22.0936 24 21.7273 23.6376 21.7273 23.1905C21.7273 22.7434 22.0936 22.381 22.5455 22.381C22.9973 22.381 23.3636 22.7434 23.3636 23.1905Z" stroke="black" stroke-width="2" stroke-linecap="round" stroke-linejoin="round"/>
</svg>
