<svg width="32" height="32" viewBox="0 0 32 32" fill="none" xmlns="http://www.w3.org/2000/svg">

<path d="M11 26C10.45 26 9.97933 25.8043 9.588 25.413C9.196 25.021 9 24.55 9 24C9 23.45 9.196 22.979 9.588 22.587C9.97933 22.1957 10.45 22 11 22C11.55 22 12.0207 22.1957 12.412 22.587C12.804 22.979 13 23.45 13 24C13 24.55 12.804 25.021 12.412 25.413C12.0207 25.8043 11.55 26 11 26ZM21 26C20.45 26 19.9793 25.8043 19.588 25.413C19.196 25.021 19 24.55 19 24C19 23.45 19.196 22.979 19.588 22.587C19.9793 22.1957 20.45 22 21 22C21.55 22 22.021 22.1957 22.413 22.587C22.8043 22.979 23 23.45 23 24C23 24.55 22.8043 25.021 22.413 25.413C22.021 25.8043 21.55 26 21 26ZM10.15 10L12.55 15H19.55L22.3 10H10.15ZM11 21C10.25 21 9.68333 20.6707 9.3 20.012C8.91667 19.354 8.9 18.7 9.25 18.05L10.6 15.6L7 8H5.975C5.69167 8 5.45833 7.904 5.275 7.712C5.09167 7.52067 5 7.28333 5 7C5 6.71667 5.096 6.479 5.288 6.287C5.47933 6.09567 5.71667 6 6 6H7.625C7.80833 6 7.98333 6.05 8.15 6.15C8.31667 6.25 8.44167 6.39167 8.525 6.575L9.2 8H23.95C24.4 8 24.7083 8.16667 24.875 8.5C25.0417 8.83333 25.0333 9.18333 24.85 9.55L21.3 15.95C21.1167 16.2833 20.875 16.5417 20.575 16.725C20.275 16.9083 19.9333 17 19.55 17H12.1L11 19H22.025C22.3083 19 22.5417 19.0957 22.725 19.287C22.9083 19.479 23 19.7167 23 20C23 20.2833 22.904 20.5207 22.712 20.712C22.5207 20.904 22.2833 21 22 21H11Z" fill="black"/>

</svg>
