<svg width="25" height="24" viewBox="0 0 25 24" fill="none" xmlns="http://www.w3.org/2000/svg">
<path d="M9.4202 11.6202C8.94123 11.6202 8.53999 11.4583 8.21649 11.1345C7.89299 10.8113 7.73124 10.4105 7.73124 9.93209V4.68805C7.73124 4.22424 7.89299 3.82728 8.21649 3.49718C8.53999 3.16638 8.94088 3.00098 9.41915 3.00098H15.9365V11.6192L9.4202 11.6202ZM16.9813 11.6202V3.00202H20.1187C20.5872 3.00202 20.986 3.16707 21.3151 3.49718C21.6441 3.82728 21.8087 4.22424 21.8087 4.68805V9.93209C21.8087 10.4105 21.6431 10.811 21.3119 11.1334C20.9815 11.4572 20.5841 11.6192 20.1197 11.6192L16.9813 11.6202ZM7.97282 19.995V12.6648H16.3319C16.5201 12.6648 16.6818 12.7143 16.8171 12.8132C16.9524 12.9121 17.0479 13.0374 17.1037 13.1892C17.1594 13.3411 17.1758 13.4943 17.1528 13.6489C17.1298 13.8049 17.0493 13.941 16.9112 14.0573L15.4482 15.3172H10.9701V16.3012H15.7765L18.0208 14.4094C18.3241 14.1573 18.6521 13.9762 19.0049 13.8662C19.3577 13.7561 19.7167 13.7168 20.0821 13.7481C20.4474 13.7795 20.7936 13.8742 21.1205 14.0323C21.4475 14.1903 21.7355 14.4163 21.9844 14.7102L16.7659 19.0715C16.4089 19.371 16.0174 19.597 15.5914 19.7495C15.1647 19.9013 14.721 19.9842 14.2601 19.9981L7.97282 19.995ZM3.82938 21.001C3.59024 21.001 3.38945 20.9202 3.227 20.7586C3.06456 20.5971 2.98368 20.3965 2.98438 20.1569V13.488C2.98438 13.2582 3.06525 13.0601 3.227 12.8936C3.38875 12.7272 3.58955 12.6439 3.82938 12.6439H6.92598V20.1569C6.92598 20.3958 6.84232 20.5964 6.67499 20.7586C6.50906 20.9202 6.3114 21.001 6.08202 21.001H3.82938Z" fill="currentColor"/>
</svg>
