<svg width="16" height="16" viewBox="0 0 16 16" fill="none" xmlns="http://www.w3.org/2000/svg">
<path d="M6.01321 7.74616C5.69389 7.74616 5.4264 7.63821 5.21073 7.42232C4.99507 7.2069 4.88723 6.9397 4.88723 6.62074V3.12472C4.88723 2.81551 4.99507 2.55087 5.21073 2.3308C5.4264 2.11027 5.69366 2 6.01251 2H10.3574V7.74546L6.01321 7.74616ZM11.0539 7.74616V2.0007H13.1455C13.4579 2.0007 13.7237 2.11073 13.9431 2.3308C14.1625 2.55087 14.2722 2.81551 14.2722 3.12472V6.62074C14.2722 6.9397 14.1618 7.20666 13.941 7.42162C13.7207 7.63751 13.4558 7.74546 13.1462 7.74546L11.0539 7.74616ZM5.04829 13.3294V8.44258H10.621C10.7465 8.44258 10.8543 8.47554 10.9445 8.54147C11.0346 8.60739 11.0983 8.69096 11.1355 8.79218C11.1727 8.89339 11.1836 8.99553 11.1683 9.0986C11.1529 9.2026 11.0993 9.29337 11.0072 9.3709L10.0318 10.2108H7.04645V10.8668H10.2508L11.7469 9.60559C11.9491 9.43753 12.1678 9.31681 12.403 9.24346C12.6382 9.1701 12.8776 9.14387 13.1211 9.16476C13.3647 9.18565 13.5954 9.2488 13.8134 9.35419C14.0314 9.45958 14.2234 9.61024 14.3893 9.80616L10.9103 12.7137C10.6723 12.9134 10.4114 13.064 10.1274 13.1657C9.84291 13.2669 9.54706 13.3222 9.23983 13.3314L5.04829 13.3294ZM2.28599 14C2.12657 14 1.99271 13.9461 1.88441 13.8384C1.77611 13.7307 1.72219 13.597 1.72266 13.4373V8.99135C1.72266 8.83814 1.77658 8.70605 1.88441 8.59509C1.99224 8.48413 2.1261 8.42865 2.28599 8.42865H4.35039V13.4373C4.35039 13.5965 4.29462 13.7303 4.18307 13.8384C4.07244 13.9461 3.94067 14 3.78775 14H2.28599Z" fill="currentColor"/>
</svg>
