<svg width="8" height="6" viewBox="0 0 8 6" fill="none" xmlns="http://www.w3.org/2000/svg">
<path d="M3.99656 5.19998C3.91656 5.19998 3.84156 5.18609 3.77156 5.15831C3.70156 5.13054 3.63879 5.08887 3.58323 5.03331L0.422229 1.87231C0.296229 1.74631 0.236007 1.60276 0.241563 1.44165C0.247118 1.28054 0.311007 1.13887 0.43323 1.01665C0.555452 0.894424 0.697118 0.833313 0.85823 0.833313C1.01934 0.833313 1.16101 0.894424 1.28323 1.01665L3.9999 3.74998L6.73323 1.01665C6.85545 0.894424 6.99712 0.836091 7.15823 0.841646C7.31934 0.847202 7.46101 0.911091 7.58323 1.03331C7.70545 1.15554 7.76656 1.2972 7.76656 1.45831C7.76656 1.61942 7.70356 1.76265 7.57756 1.88798L4.41656 5.03331C4.35656 5.08887 4.29156 5.13054 4.22156 5.15831C4.15156 5.18609 4.07656 5.19998 3.99656 5.19998Z" fill="black"/>
</svg>
