<svg width="25" height="24" viewBox="0 0 25 24" fill="none" xmlns="http://www.w3.org/2000/svg">
<path fill-rule="evenodd" clip-rule="evenodd" d="M8.7998 7C8.7998 5.93913 9.22123 4.92172 9.97138 4.17157C10.7215 3.42143 11.7389 3 12.7998 3C13.8607 3 14.8781 3.42143 15.6282 4.17157C16.3784 4.92172 16.7998 5.93913 16.7998 7C16.7998 8.06087 16.3784 9.07828 15.6282 9.82843C14.8781 10.5786 13.8607 11 12.7998 11C11.7389 11 10.7215 10.5786 9.97138 9.82843C9.22123 9.07828 8.7998 8.06087 8.7998 7ZM8.7998 13C7.47372 13 6.20195 13.5268 5.26427 14.4645C4.32659 15.4021 3.7998 16.6739 3.7998 18C3.7998 18.7956 4.11588 19.5587 4.67848 20.1213C5.24109 20.6839 6.00416 21 6.7998 21H18.7998C19.5955 21 20.3585 20.6839 20.9211 20.1213C21.4837 19.5587 21.7998 18.7956 21.7998 18C21.7998 16.6739 21.273 15.4021 20.3353 14.4645C19.3977 13.5268 18.1259 13 16.7998 13H8.7998Z" fill="#898989"/>
</svg>
